<svg id="SvgjsSvg1001" width="288" height="288" xmlns="http://www.w3.org/2000/svg" version="1.1" xmlns:xlink="http://www.w3.org/1999/xlink" xmlns:svgjs="http://svgjs.com/svgjs"><defs id="SvgjsDefs1002"></defs><g id="SvgjsG1008" transform="matrix(1,0,0,1,0,0)"><svg xmlns="http://www.w3.org/2000/svg" width="288" height="288" viewBox="0 0 17 17"><path d="M6.795 13.396c-1.11-1.037-1.747-2.502-1.747-4.021 0-3.033 2.468-5.5 5.5-5.5h2.912l-2.646-2.646 0.707-0.707 3.854 3.854-3.854 3.854-0.707-0.707 2.646-2.646h-2.912c-2.481 0-4.5 2.019-4.5 4.5 0 1.261 0.508 2.429 1.429 3.29l-0.682 0.729zM16.048 9.030v6.47c0 0.275-0.225 0.5-0.5 0.5h-14c-0.275 0-0.5-0.225-0.5-0.5v-6.475h-1v6.475c0 0.827 0.673 1.5 1.5 1.5h14c0.827 0 1.5-0.673 1.5-1.5v-6.47h-1z" fill="#4b49ac" class="color000 svgShape"></path></svg></g></svg>